<?xml version="1.0" encoding="UTF-8" standalone="no"?>
<!-- Created with Inkscape (http://www.inkscape.org/) -->

<svg version="1.0" xmlns="http://www.w3.org/2000/svg"
			                                                  viewBox="0 0 1000.000000 1256.000000">
					<g transform="translate(0.000000,1256.000000) scale(0.100000,-0.100000)"
					   fill="#000000" stroke="none">
						<path d="M0 8062 c0 -4414 0 -4500 19 -4574 71 -276 299 -587 563 -765 57 -38
897 -582 1868 -1207 971 -626 1809 -1168 1864 -1206 112 -77 269 -158 377
-196 337 -115 635 -50 1044 230 66 45 930 604 1920 1240 990 637 1818 1170
1840 1184 22 15 88 74 146 132 170 168 291 374 339 574 20 80 20 154 20 4584
l0 4502 -5000 0 -5000 0 0 -4498z"></path>
					</g>
				</svg>