<?xml version="1.0" encoding="UTF-8" standalone="no"?>
<!-- Created with Inkscape (http://www.inkscape.org/) -->

<svg
   xmlns:dc="http://purl.org/dc/elements/1.1/"
   xmlns:cc="http://creativecommons.org/ns#"
   xmlns:rdf="http://www.w3.org/1999/02/22-rdf-syntax-ns#"
   xmlns:svg="http://www.w3.org/2000/svg"
   xmlns="http://www.w3.org/2000/svg"
   xmlns:sodipodi="http://sodipodi.sourceforge.net/DTD/sodipodi-0.dtd"
   xmlns:inkscape="http://www.inkscape.org/namespaces/inkscape"
   version="1.1"
   id="svg3699"
   width="1000"
   height="265"
   viewBox="0 0 1000 265"
   sodipodi:docname="theme-logo.svg"
   inkscape:version="0.92.2 (5c3e80d, 2017-08-06)">
  <metadata
     id="metadata3705">
    <rdf:RDF>
      <cc:Work
         rdf:about="">
        <dc:format>image/svg+xml</dc:format>
        <dc:type
           rdf:resource="http://purl.org/dc/dcmitype/StillImage" />
        <dc:title></dc:title>
      </cc:Work>
    </rdf:RDF>
  </metadata>
  <defs
     id="defs3703" />
  <sodipodi:namedview
     pagecolor="#ffffff"
     bordercolor="#666666"
     borderopacity="1"
     objecttolerance="10"
     gridtolerance="10"
     guidetolerance="10"
     inkscape:pageopacity="0"
     inkscape:pageshadow="2"
     inkscape:window-width="1920"
     inkscape:window-height="1027"
     id="namedview3701"
     showgrid="false"
     inkscape:zoom="0.63"
     inkscape:cx="294.78948"
     inkscape:cy="-34"
     inkscape:window-x="-8"
     inkscape:window-y="-8"
     inkscape:window-maximized="1"
     inkscape:current-layer="svg3699"
     inkscape:pagecheckerboard="true" />
  <path
     style="fill:#ffffff;fill-opacity:0.978836;stroke-width:0.62771988"
     d="M 115,-1.6059619 V 161 H 895 V -1.6059619 Z M 394.08682,28.829402 h 16.04341 c 2.33374,0 3.64731,1.312315 3.64731,3.646064 v 94.808854 c 0,2.33375 -1.31357,3.64608 -3.64731,3.64608 h -16.04341 c -2.33374,0 -3.64732,-1.31233 -3.64732,-3.64608 V 32.475466 c 0,-2.333749 1.31358,-3.646064 3.64732,-3.646064 z m 174.57804,0 h 19.69072 33.54728 c 2.33375,0 3.64606,1.312315 3.64606,3.646064 v 15.169918 c 0,2.333747 -1.31231,3.646064 -3.64606,3.646064 h -33.54728 v 21.149907 h 32.8183 c 2.33375,0 3.64608,1.31232 3.64608,3.646067 v 15.169915 c 0,2.333746 -1.31233,3.646054 -3.64608,3.646054 h -32.8183 v 32.380929 c 0,2.33375 -1.31358,3.64608 -3.64731,3.64608 h -16.04341 c -2.33376,0 -3.64732,-1.31233 -3.64732,-3.64608 V 32.475466 c 0,-2.333749 1.31356,-3.646064 3.64732,-3.646064 z m 194.42144,0 h 19.69071 33.54728 c 2.33376,0 3.64733,1.312315 3.64733,3.646064 v 15.169918 c 0,2.333747 -1.31357,3.646064 -3.64733,3.646064 h -33.54728 v 17.066471 h 29.90122 c 2.33375,0 3.64606,1.312319 3.64606,3.646066 v 14.585494 c 0,2.333748 -1.31231,3.647311 -3.64606,3.647311 h -29.90122 v 18.23157 h 34.27751 c 2.33373,0 3.64603,1.31357 3.64603,3.64732 v 15.16864 c 0,2.33375 -1.3123,3.64608 -3.64603,3.64608 h -50.32217 -3.64605 c -2.33376,0 -3.64606,-1.31233 -3.64606,-3.64608 V 32.475466 c 0,-2.333749 1.3123,-3.646064 3.64606,-3.646064 z m -577.05298,0.145792 h 19.69073 16.04466 c 19.3993,0 35.00522,15.607184 35.00522,35.006448 0,12.106311 -7.29221,23.337886 -18.08578,29.17225 l 26.25391,33.255688 v 0.14578 c 1.89616,2.33375 0.87616,4.52082 -2.18688,4.52082 h -18.67021 c -1.89617,0 -3.35517,-0.58242 -4.52206,-2.18688 L 214.62115,97.52891 h -8.8971 v 29.90123 c 0,2.33374 -1.31356,3.64604 -3.6473,3.64604 h -16.04343 c -2.33374,0 -3.64732,-1.3123 -3.64732,-3.64604 V 32.621256 c 0,-2.333748 1.31358,-3.646062 3.64732,-3.646062 z m 19.69073,21.878871 v 26.255159 h 16.04466 c 6.4178,0 11.6684,-5.688767 11.6684,-13.127582 0,-7.438814 -5.2506,-13.127577 -11.6684,-13.127577 z"
     id="rect3709"
     inkscape:connector-curvature="0"
     sodipodi:nodetypes="cccccsssssssssscssssccsssscssssssscssssccssssccsssscssssscsscccsscccssssssccsssc" />
  <g
     aria-label="free version"
     style="font-style:normal;font-variant:normal;font-weight:normal;font-stretch:normal;font-size:205.52128601px;line-height:1.25;font-family:Gloriant;-inkscape-font-specification:'Gloriant, weight=250';font-variant-ligatures:normal;font-variant-caps:normal;font-variant-numeric:normal;font-feature-settings:normal;text-align:start;letter-spacing:0px;word-spacing:0px;writing-mode:lr-tb;text-anchor:start;fill:#ffffff;fill-opacity:1;stroke:none;stroke-width:5.13803244"
     id="text42"
     transform="translate(0,4)">
    <path
       style="fill:#ffffff;stroke-width:5.13803244"
       d="M 251.53906 152.25586 C 250.69836 152.31356 249.93223 152.75537 249.54688 153.71875 C 239.47634 176.94266 230.84339 200.98997 229.19922 226.47461 C 228.9937 229.76295 228.78906 232.84491 228.78906 235.92773 C 228.78906 239.01054 228.9937 242.29804 229.19922 245.38086 C 229.81578 250.92994 230.43342 257.09617 234.13281 261.41211 C 235.77698 263.46733 237.83106 264.28906 240.0918 264.28906 C 242.55805 264.28906 245.23039 263.05565 247.08008 260.79492 C 250.36842 256.47897 250.36826 249.28647 250.7793 244.14844 C 250.98482 241.8877 250.98437 239.833 250.98438 237.57227 C 250.98438 227.91276 249.75293 218.45789 247.49219 209.00391 C 249.13636 209.00391 250.98474 208.38804 252.62891 207.77148 C 255.83298 206.43646 259.55133 204.66298 262.21875 202.06641 C 263.32732 204.62724 265.04597 206.86012 267.54883 208.26172 C 270.22061 209.90589 273.50898 210.11221 276.5918 209.70117 C 279.4691 209.29012 282.96344 208.46706 285.42969 207.43945 C 285.63522 207.43945 285.63432 207.23438 285.83984 207.23438 L 285.83984 208.05664 C 285.83984 209.49528 285.22354 211.13947 284.8125 212.57812 C 283.99042 215.66094 282.75674 218.74335 282.3457 221.82617 C 281.72913 227.16973 282.96202 233.33666 287.89453 236.625 C 289.74422 237.85813 291.80025 238.47461 293.85547 238.47461 C 298.58246 238.47461 303.30887 235.59649 306.80273 232.51367 C 309.35702 230.22363 312.20207 226.97173 314.875 223.44141 C 315.44506 225.10689 316.44832 226.65261 318.03906 227.99219 C 321.53292 230.86949 326.25978 231.69078 330.78125 231.07422 C 336.33032 230.25213 341.05754 227.16965 345.16797 223.67578 L 351.12891 217.30469 C 351.18744 217.24084 351.24058 217.17883 351.29883 217.11523 C 351.281 217.45357 351.26953 217.79079 351.26953 218.12695 C 351.26953 220.5932 351.68093 222.85495 352.91406 224.91016 C 355.17479 228.60954 358.66736 230.04687 362.57227 230.04688 C 366.68269 230.04688 371.20536 228.40349 374.69922 226.96484 C 382.71455 223.6765 392.98945 217.71544 396.07227 209.28906 C 396.68883 207.64489 394.83904 206.00062 393.40039 206.61719 C 387.02923 208.87792 382.09835 214.42846 376.34375 217.7168 C 373.46645 219.36097 370.38209 220.59348 367.09375 221.62109 C 364.6275 222.23765 360.51873 223.67568 359.08008 221.00391 C 358.05248 219.35974 358.25737 217.30521 358.46289 215.25 C 358.66841 216.89417 360.10778 218.3323 361.75195 217.30469 C 365.65686 215.04396 369.1496 212.37188 372.23242 209.28906 C 374.90419 206.61729 377.78089 202.91901 376.13672 198.80859 C 374.90359 195.31473 370.99972 193.67099 367.50586 194.08203 C 363.18991 194.69859 359.69673 198.19213 357.23047 201.48047 C 356.15349 202.98824 355.10821 204.75588 354.19531 206.66016 C 354.0646 206.70331 353.93395 206.75763 353.80078 206.82422 C 346.40201 210.31808 341.87924 218.12679 334.48047 221.82617 C 331.19213 223.47034 326.87623 224.49813 323.58789 222.64844 C 320.29955 220.79875 321.94398 216.68785 322.56055 213.81055 C 322.56055 213.60503 322.56011 213.60591 322.76562 213.40039 C 326.46501 214.01695 329.75312 212.57758 332.83594 210.11133 C 336.12428 207.64507 340.02903 204.35696 341.05664 200.04102 C 342.08425 196.54715 341.46803 192.02636 338.17969 189.76562 C 334.48031 186.88833 330.37143 189.56064 327.49414 192.23242 C 322.26246 197.29534 318.00321 203.88318 315.84961 210.9707 C 312.61659 214.09123 309.19566 217.71658 306.80273 219.97656 C 303.51439 223.05938 300.02103 227.58088 295.70508 229.01953 C 291.80017 230.25265 290.97763 226.14337 291.38867 223.06055 C 291.79971 218.53908 294.06117 214.22308 294.67773 209.49609 C 295.2943 204.7691 293.85421 198.80798 288.09961 198.19141 C 283.57814 197.78037 279.67337 200.24672 275.35742 200.86328 C 278.85128 196.75285 281.72844 192.0252 283.57812 186.68164 C 284.40022 184.62643 285.22266 181.74991 285.22266 179.07812 C 285.22266 176.40635 284.40136 173.94105 282.14062 172.29688 C 277.00259 168.39198 270.4255 173.32362 266.93164 177.22852 C 263.02673 181.74999 260.76607 187.50473 260.56055 193.46484 C 260.56055 194.0802 260.59317 194.7082 260.64062 195.33789 C 258.15816 196.65724 256.09606 198.49705 253.65625 199.96094 C 252.42312 200.78303 246.66868 204.27788 245.43555 202.22266 C 244.61346 200.78402 242.9699 200.37215 241.53125 200.7832 C 242.35334 197.28933 243.17551 194.00167 244.20312 190.50781 C 247.28594 178.7931 250.98571 167.28415 254.89062 155.98047 C 255.5971 153.86104 253.3886 152.12891 251.53906 152.25586 z M 545.82812 170.87109 C 541.64705 170.79402 537.29227 174.29984 534.67188 177.22852 C 530.76697 181.74999 528.5063 187.50473 528.30078 193.46484 C 528.30078 198.12681 529.61391 203.35989 533.07812 206.62305 C 526.71376 208.88694 521.78358 214.43087 516.0332 217.7168 C 513.15591 219.36097 510.0735 220.59348 506.78516 221.62109 C 504.3189 222.23765 500.20817 223.67568 498.76953 221.00391 C 497.74192 219.35974 497.94682 217.30521 498.15234 215.25 C 498.35786 216.89417 499.79724 218.3323 501.44141 217.30469 C 505.34632 215.04396 508.83906 212.37188 511.92188 209.28906 C 514.59364 206.61729 517.4723 202.91901 515.82812 198.80859 C 514.595 195.31473 510.68917 193.67099 507.19531 194.08203 C 502.87936 194.69859 499.38618 198.19213 496.91992 201.48047 C 495.78934 203.06329 494.68961 204.92544 493.74609 206.93945 C 490.49656 208.10773 487.41564 210.25434 484.63086 209.90625 C 482.37012 209.90625 480.93101 207.85209 480.31445 205.79688 C 482.98622 200.04228 486.68466 193.66955 487.0957 187.50391 C 487.30122 185.03765 486.68607 182.16175 484.63086 180.51758 C 481.75356 178.46237 478.46493 179.90049 476.61523 182.57227 C 472.71033 187.91582 470.86089 194.90379 471.06641 201.48047 C 471.06641 203.12464 471.2706 204.76793 471.68164 206.41211 C 469.00987 211.34462 466.33912 216.27736 463.05078 220.79883 L 458.93945 225.9375 C 458.11737 227.17063 455.65242 230.45793 453.80273 230.04688 C 450.92543 229.2248 452.98003 221.4161 453.18555 219.56641 C 455.03524 207.64617 457.50072 196.13659 460.78906 184.42188 C 461.81666 180.92801 456.26784 179.48856 455.24023 182.98242 C 452.9795 190.58671 451.13095 198.39723 449.28125 206.20703 C 447.8426 212.78372 445.78755 219.97757 445.58203 226.75977 C 445.58203 232.30885 449.07566 238.26828 455.65234 237.03516 C 461.81798 236.00755 466.13309 229.43011 469.62695 224.70312 C 471.68216 221.62031 473.7382 218.33326 475.58789 215.04492 C 478.46519 217.7167 481.95926 218.94922 485.45312 218.94922 C 487.33837 218.94922 489.22121 218.55428 490.96875 217.78516 C 490.96668 217.899 490.95898 218.01339 490.95898 218.12695 C 490.95898 220.5932 491.37039 222.85495 492.60352 224.91016 C 494.86425 228.60954 498.35876 230.04687 502.26367 230.04688 C 506.37409 230.04688 510.89481 228.40349 514.38867 226.96484 C 522.404 223.6765 532.68085 217.71544 535.76367 209.28906 C 535.85436 209.04722 535.87796 208.80886 535.87109 208.57422 C 538.4308 209.91604 541.46589 210.08306 544.33008 209.70117 C 547.20737 209.29012 550.70172 208.46706 553.16797 207.43945 C 553.37349 207.43945 553.37456 207.23438 553.58008 207.23438 L 553.58008 208.05664 C 553.58008 209.49528 552.96377 211.13947 552.55273 212.57812 C 551.73064 215.66094 550.49698 218.74335 550.08594 221.82617 C 549.46938 227.16973 550.70226 233.33666 555.63477 236.625 C 557.48446 237.85813 559.54049 238.47461 561.5957 238.47461 C 566.32269 238.47461 571.04911 235.59649 574.54297 232.51367 C 578.7052 228.78202 583.63864 222.55077 587.30469 216.60742 C 589.39849 219.99356 592.29082 222.9946 595.02734 226.04688 L 592.15039 228.51367 C 587.01236 232.62409 581.8741 236.73458 577.76367 242.07812 C 574.06429 246.80512 568.92625 253.79334 573.24219 259.95898 C 575.09188 262.42523 577.76377 263.45312 580.43555 263.45312 C 583.31285 263.45312 586.18999 262.42409 588.65625 261.39648 C 594.41085 258.72471 599.75481 254.82118 603.86523 249.88867 C 607.97566 245.16168 611.05823 239.20169 609.41406 232.625 C 608.7975 230.98083 608.18146 229.54217 607.35938 228.10352 C 610.03115 225.84278 612.70278 223.78763 615.58008 221.73242 C 617.12436 220.51906 618.74053 219.31717 620.36133 218.09766 C 619.7307 220.18259 619.29601 222.32069 619.10938 224.49805 C 618.90386 227.58087 619.31349 230.87013 621.57422 233.13086 C 624.45152 235.59712 628.56277 236.41778 632.05664 235.5957 C 639.04436 234.36257 645.20918 228.40233 650.55273 223.88086 C 651.26765 223.27593 651.98238 222.66944 652.69336 222.05664 C 652.69293 222.11719 652.68945 222.17773 652.68945 222.23828 C 652.68945 226.34871 653.5103 230.25222 655.97656 233.74609 C 658.23729 237.03443 660.91025 238.26758 663.58203 238.26758 C 671.18631 238.26758 678.99619 227.78718 681.66797 221.41602 L 682.69531 218.74414 C 686.23241 218.1343 689.61949 216.86784 692.39453 214.99805 C 691.93106 220.27935 691.3671 225.52707 691.08594 230.86914 C 691.08594 234.15748 695.40137 235.80175 697.66211 233.54102 C 703.82775 227.37538 709.17207 220.59319 714.51562 213.60547 C 718.42053 208.67296 722.94268 201.89141 728.69727 198.80859 C 729.72488 198.19202 730.54687 198.60175 730.54688 199.42383 C 731.16345 201.89009 730.13414 204.9732 729.51758 207.43945 C 729.10654 209.70019 728.49023 211.96237 728.49023 214.01758 C 728.49023 216.27832 729.10823 218.53854 730.54688 220.59375 C 733.01314 223.88209 737.32859 225.93794 741.64453 225.73242 C 746.78257 225.52689 751.30407 222.8543 755.20898 219.77148 C 758.49732 217.30522 762.19673 214.22238 764.25195 210.72852 C 765.27955 208.87883 763.01944 206.00106 760.34766 206.41211 C 756.8538 206.82315 754.59214 208.46823 751.71484 210.52344 C 748.63202 212.57865 745.13777 216.27734 741.02734 216.27734 C 736.50587 216.27734 737.73891 212.16636 738.35547 209.28906 C 738.97204 206.20624 739.79536 203.12383 739.58984 200.04102 C 739.1788 192.64225 732.60145 187.29955 725.4082 190.58789 C 719.44809 193.25966 714.92639 199.21939 711.02148 204.35742 C 706.70554 209.49545 702.79987 215.04512 698.68945 220.38867 C 698.68945 216.07273 699.71875 212.37258 699.71875 208.05664 C 699.53086 204.67465 694.20298 204.05221 693.13086 206.79492 L 684.95508 209.70117 C 685.98269 200.86375 684.54401 191.40899 675.91211 188.32617 C 666.66366 185.24335 659.67666 194.49266 659.26562 203.33008 C 657.93996 205.14415 656.77225 207.13326 655.78711 209.22266 C 655.75545 209.244 655.72307 209.26796 655.69141 209.28906 C 653.22516 210.72771 650.96385 212.78356 648.70312 214.42773 C 644.79823 217.92159 640.689 221.62075 636.37305 224.49805 C 634.11232 226.14222 631.4398 227.99263 628.5625 227.78711 C 626.30177 227.58159 626.50737 225.731 626.71289 223.67578 C 627.32946 218.12671 629.5895 212.57855 632.4668 207.85156 C 633.0808 206.80776 633.06329 205.8417 632.6875 205.07617 C 632.39811 203.4604 630.56533 202.02525 628.9375 202.61719 C 621.94978 204.87792 615.78585 210.22311 610.03125 214.53906 L 601.60352 220.91016 L 599.13867 218.23828 C 594.82272 213.51129 590.91593 208.57908 592.76562 201.79688 C 594.82083 195.01468 599.95892 189.25904 606.33008 185.9707 C 609.82394 184.32653 606.74191 179.18786 603.24805 180.83203 C 593.79407 185.3535 584.95641 194.39795 584.33984 205.49609 C 584.22848 207.09234 584.33791 208.58358 584.61328 209.99805 C 581.09645 213.30576 577.19081 217.47583 574.54297 219.97656 C 571.25463 223.05938 567.76125 227.58088 563.44531 229.01953 C 559.5404 230.25265 558.71787 226.14337 559.12891 223.06055 C 559.53995 218.53908 561.79946 214.22308 562.41602 209.49609 C 563.03258 204.7691 561.59443 198.80798 555.83984 198.19141 C 551.31837 197.78037 547.41361 200.24672 543.09766 200.86328 C 546.59152 196.75285 549.46867 192.0252 551.31836 186.68164 C 552.14044 184.62643 552.96289 181.74991 552.96289 179.07812 C 552.96289 176.40635 552.14159 173.94105 549.88086 172.29688 C 548.59635 171.32065 547.22182 170.89678 545.82812 170.87109 z M 278.35547 178.19141 C 278.45878 178.19652 278.55657 178.21732 278.64648 178.25586 C 279.67409 178.87242 278.64693 182.77753 278.44141 183.59961 C 277.00276 189.35421 274.53577 194.4922 270.63086 199.01367 L 270.63086 199.21875 C 269.60326 197.57458 269.19185 195.52006 268.98633 193.46484 C 268.98633 189.55994 270.6314 185.4485 273.09766 182.16016 C 273.86836 181.58213 276.80578 178.11464 278.35547 178.19141 z M 546.0957 178.19141 C 546.19902 178.19652 546.2968 178.21732 546.38672 178.25586 C 547.41433 178.87242 546.38716 182.77753 546.18164 183.59961 C 544.74299 189.35421 542.27599 194.4922 538.37109 199.01367 L 538.37109 199.21875 C 537.34348 197.57458 536.93208 195.52006 536.72656 193.46484 C 536.72656 189.55994 538.37164 185.4485 540.83789 182.16016 C 541.6086 181.58213 544.54601 178.11464 546.0957 178.19141 z M 636.51562 188.91406 C 636.32777 188.90764 636.14077 188.91767 635.96094 188.94336 C 634.31677 189.14888 629.58922 191.61497 628.97266 192.64258 C 628.15057 194.08123 628.5633 195.93183 630.00195 196.75391 C 631.02956 197.37048 632.46804 197.37002 633.70117 196.95898 C 636.16742 195.93137 638.8394 194.28746 639.04492 191.41016 C 639.22475 189.79168 637.83064 188.95902 636.51562 188.91406 z M 335.15625 193.68359 C 335.66323 193.66433 336.2027 193.87562 336.74219 194.49219 C 337.56428 195.5198 336.94665 197.57591 336.33008 198.60352 C 335.71352 200.24769 334.48118 201.47976 333.24805 202.71289 C 330.98732 205.17915 327.49387 208.6725 324 209.28906 C 325.8497 203.94551 328.72702 198.60173 333.04297 194.90234 C 333.55678 194.38854 334.31129 193.71571 335.15625 193.68359 z M 672.87695 194.87305 C 677.25337 194.97836 677.7429 203.0219 677.55664 206.00195 C 677.55664 207.64612 677.35049 209.28987 676.93945 210.72852 C 673.44559 210.72852 668.92542 209.90553 667.28125 206.61719 C 665.63708 203.12332 667.48572 196.3425 671.39062 195.10938 C 671.93012 194.93597 672.42422 194.86215 672.87695 194.87305 z M 368.9043 200.35742 C 369.2052 200.37353 369.49588 200.46553 369.76562 200.6582 C 371.61532 201.68581 368.7381 204.56375 367.91602 205.79688 C 365.44976 208.67417 362.77857 211.13965 359.49023 213.40039 C 359.07918 213.60591 358.87349 214.01668 358.66797 214.42773 L 359.49023 211.55078 C 360.72335 208.05692 362.7794 204.76898 365.45117 202.30273 C 366.11912 201.63479 367.60037 200.28762 368.9043 200.35742 z M 508.59375 200.35742 C 508.89466 200.37353 509.18728 200.46553 509.45703 200.6582 C 511.30672 201.68581 508.42951 204.56375 507.60742 205.79688 C 505.14117 208.67417 502.46803 211.13965 499.17969 213.40039 C 498.76865 213.60591 498.56489 214.01668 498.35938 214.42773 L 499.17969 211.55078 C 500.41282 208.05692 502.46884 204.76898 505.14062 202.30273 C 505.80857 201.63479 507.28982 200.28762 508.59375 200.35742 z M 240.29883 206.74414 C 243.17612 215.9926 244.82031 225.44597 244.82031 235.10547 C 244.61479 240.2435 244.20339 245.38149 243.17578 250.51953 C 242.97026 251.75265 242.55974 256.06899 241.12109 256.68555 C 240.09349 257.0966 239.06534 252.57448 238.6543 251.54688 C 237.62669 247.02541 237.21484 242.09418 237.21484 237.36719 C 237.21484 231.81812 237.62563 226.47398 238.24219 221.33594 C 238.65324 216.40343 239.47674 211.67665 240.29883 206.74414 z M 662.09961 212.55469 C 665.04105 216.06115 669.58328 218.17976 674.47461 218.74414 C 674.26908 219.36071 673.85786 219.7706 673.65234 220.18164 C 672.41921 222.6479 670.98011 224.70456 669.33594 226.75977 C 668.10282 227.9929 666.0474 230.66406 663.99219 230.66406 C 659.88176 230.66406 659.47026 222.44326 659.67578 219.77148 C 659.67578 218.06007 659.91558 216.35371 660.30859 214.68555 C 660.93959 214.00605 661.54766 213.29534 662.09961 212.55469 z M 600.37109 233.65234 C 601.80974 237.55725 600.16529 241.05106 596.87695 244.54492 C 593.38309 248.44982 588.86069 251.73819 583.72266 253.58789 C 582.90057 253.99893 582.08034 254.20464 581.05273 254.41016 L 580.8457 254.41016 C 582.07883 251.73838 583.5175 249.47753 585.36719 247.2168 C 589.06657 242.90085 593.38283 239.20134 597.9043 235.50195 L 600.37109 233.65234 z "
       transform="translate(0,-4)"
       id="path79" />
  </g>
</svg>
